<svg width="32" height="32" viewBox="0 0 32 32" fill="none" xmlns="http://www.w3.org/2000/svg">
<mask id="mask0_1479_1234" style="mask-type:alpha" maskUnits="userSpaceOnUse" x="0" y="0" width="32" height="32">
<circle cx="16" cy="16" r="16" fill="#D9D9D9"/>
</mask>
<g mask="url(#mask0_1479_1234)">
<rect width="35.6667" height="35.6667" fill="#FFF6FB"/>
</g>
<g clip-path="url(#clip0_1479_1234)">
<mask id="mask1_1479_1234" style="mask-type:luminance" maskUnits="userSpaceOnUse" x="3" y="3" width="26" height="26">
<path d="M29 3H3V29H29V3Z" fill="white"/>
</mask>
<g mask="url(#mask1_1479_1234)">
<path d="M28.7332 13.3841C28.5597 12.5432 28.3061 11.7291 27.9724 10.9416C27.652 10.1675 27.2384 9.43337 26.7712 8.72597C26.3041 8.03193 25.7702 7.39128 25.1828 6.804C24.5956 6.21674 23.955 5.68286 23.2609 5.21571C22.5668 4.74856 21.8195 4.34815 21.0453 4.01448C20.2578 3.6808 19.4436 3.42721 18.6027 3.2537C17.7485 3.08018 16.8676 2.98676 15.9867 2.98676C15.1058 2.98676 14.2382 3.09353 13.384 3.26704C12.5432 3.44055 11.729 3.69415 10.9415 4.02782C10.1674 4.34815 9.43329 4.76191 8.72589 5.22905C8.03183 5.69621 7.39118 6.23008 6.80391 6.81735C6.21663 7.40461 5.68275 8.04528 5.21561 8.73932C4.74845 9.43337 4.34804 10.1808 4.01436 10.9549C3.68068 11.7424 3.42709 12.5566 3.25358 13.3974C3.08006 14.2516 2.98663 15.1325 2.98663 16.0134C2.98663 16.8944 3.08006 17.7753 3.25358 18.6295C3.42709 19.4704 3.68068 20.2845 4.01436 21.072C4.33469 21.8461 4.74845 22.5802 5.21561 23.2875C5.68275 23.9816 6.21663 24.6223 6.80391 25.2096C7.39118 25.7968 8.03183 26.3307 8.72589 26.7978C9.41994 27.265 10.1674 27.6654 10.9415 27.9991C11.729 28.3327 12.5432 28.5863 13.384 28.7599C14.2382 28.9333 15.1191 29.0268 16 29.0268C16.881 29.0268 17.7619 28.9333 18.6161 28.7599C19.457 28.5863 20.2712 28.3327 21.0586 27.9991C21.8327 27.6787 22.5668 27.265 23.2743 26.7978C23.9682 26.3307 24.609 25.7968 25.1962 25.2096C25.7835 24.6223 26.3173 23.9816 26.7845 23.2875C27.2516 22.5935 27.652 21.8461 27.9857 21.072C28.3195 20.2845 28.5731 19.4704 28.7465 18.6295C28.9201 17.7753 29.0135 16.8944 29.0135 16.0134C29.0001 15.1192 28.9067 14.2383 28.7332 13.3841ZM16 27.3718C9.71357 27.3718 4.62833 22.2732 4.62833 16.0001C4.62833 9.727 9.72692 4.62844 16 4.62844C22.2732 4.62844 27.3718 9.727 27.3718 16.0001C27.3718 22.2865 22.2865 27.3718 16 27.3718Z" fill="#101010"/>
<path d="M16.2002 26.3971H16.5071C16.5606 26.3971 16.614 26.3971 16.6673 26.3839H16.6807C16.7341 26.3839 16.7742 26.3839 16.8275 26.3705H16.8675C16.9075 26.3705 16.9476 26.3705 16.9876 26.3571H17.0276C17.0677 26.3571 17.1077 26.3438 17.1612 26.3438H17.1878C17.2412 26.3438 17.2947 26.3305 17.348 26.3305C17.4014 26.3305 17.4414 26.3171 17.4949 26.3038H17.5215C17.5616 26.3038 17.6016 26.2904 17.6416 26.2904H17.6683C17.7217 26.277 17.7618 26.277 17.8152 26.2638C17.9219 26.2504 18.0288 26.2237 18.1221 26.1969H18.1489C18.1889 26.1837 18.2422 26.1837 18.2823 26.1703H18.2957C18.4024 26.1436 18.4959 26.1169 18.6026 26.0902C17.3213 26.1302 16.2803 25.9567 15.6263 25.8099C14.1581 25.4896 12.7567 24.9157 11.5688 23.928C9.5934 22.273 8.57903 19.8973 8.60573 17.5348C8.61907 15.773 9.21969 14.0112 10.4343 12.5698C11.9558 10.768 14.118 9.82032 16.3337 9.76694H16.6406V7.99179H16.2937C15.6129 8.00514 14.9456 8.08522 14.2916 8.23204C13.6242 8.37885 12.9835 8.60575 12.3696 8.88603C11.7423 9.17967 11.155 9.54004 10.6078 9.95379C10.0472 10.3809 9.52668 10.8747 9.07287 11.4219C8.64577 11.9291 8.27205 12.4764 7.96506 13.0636C7.65808 13.6242 7.41784 14.2248 7.23098 14.8388C7.05747 15.4394 6.924 16.0667 6.87061 16.6939C6.85727 16.8941 6.84392 17.0811 6.83057 17.2813V17.6282C6.84392 18.3089 6.924 18.9763 7.07082 19.6302C7.21764 20.2977 7.44453 20.9383 7.72482 21.5523C8.05849 22.2863 8.65911 23.3675 9.55336 24.1816C11.3152 25.5697 13.5441 26.3971 15.9599 26.3971H16.2002Z" fill="#101010"/>
<path d="M19.1099 24.6757C18.4959 24.6623 17.7351 24.569 17.1479 24.4621C14.3983 23.9682 12.0359 22.2866 11.1684 19.7506C10.114 16.6674 11.729 13.3306 14.7988 12.3162C15.3994 12.116 16 12.0226 16.614 12.0226C17.4014 12.0226 18.1889 12.1828 18.9097 12.4764L19.657 10.8881C19.4302 10.7946 19.2033 10.7146 18.9764 10.6345C18.2156 10.3942 17.4148 10.2741 16.614 10.2741C15.8131 10.2741 15.0123 10.4076 14.2515 10.6612C13.2772 10.9815 12.383 11.5021 11.6222 12.1828C11.2618 12.5031 10.9148 12.8768 10.6211 13.2639C10.3275 13.6509 10.0739 14.0647 9.86037 14.5052C9.64681 14.9456 9.4733 15.3994 9.35318 15.8666C9.23306 16.3337 9.13963 16.8276 9.11294 17.3215C9.0462 18.3359 9.17967 19.3501 9.51334 20.3112C9.84702 21.2856 10.3809 22.1798 11.115 22.9672C11.769 23.6747 12.5298 24.2086 13.4507 24.7023C14.4117 25.2096 15.5996 25.4765 16.8408 25.65C17.6416 25.7568 18.7095 25.7836 19.3367 25.7836C19.884 25.5834 20.1109 25.4899 20.4045 25.3698C20.6582 25.2496 20.9117 25.1295 21.1653 24.9826C21.4189 24.8359 21.459 24.8092 21.886 24.5289C21.9261 24.5021 21.9661 24.4755 21.9929 24.4488C20.5247 24.7157 20.1509 24.7023 19.1099 24.6757Z" fill="#101010"/>
<path d="M22.3933 22.7003C21.9795 22.727 21.3922 22.767 20.7249 22.767C19.5369 22.767 18.0821 22.6603 16.8409 22.2465C14.9189 21.6059 13.1036 19.9642 13.1036 17.9354C13.1036 15.9066 14.7453 14.2783 16.7608 14.2783C18.1355 14.2783 19.3233 15.039 19.9507 16.1469L21.5391 15.3594C21.2854 14.8922 20.9785 14.4651 20.5914 14.0914C20.0975 13.5976 19.5103 13.1971 18.8696 12.9302C18.2022 12.6499 17.4949 12.5031 16.7608 12.5031C16.0267 12.5031 15.3193 12.6499 14.6519 12.9302C14.0112 13.1971 13.424 13.5976 12.9301 14.0914C12.4363 14.5852 12.0359 15.1725 11.7689 15.8132C11.4886 16.4805 11.3418 17.1879 11.3418 17.9221C11.3418 18.6562 11.502 19.3903 11.809 20.0843C12.0893 20.6982 12.4763 21.2722 12.9702 21.8061C13.8377 22.7404 15.0256 23.4879 16.2936 23.9149C17.5081 24.3153 19.2967 24.4622 21.0318 24.3421C21.5123 24.3153 21.8726 24.262 22.4866 24.1285C23.074 23.6613 23.6211 23.1275 24.0884 22.5402C23.688 22.5802 22.9271 22.6603 22.3933 22.7003Z" fill="#101010"/>
</g>
</g>
<defs>
<clipPath id="clip0_1479_1234">
<rect width="26" height="26" fill="white" transform="translate(3 3)"/>
</clipPath>
</defs>
</svg>
