<svg width="32" height="32" viewBox="0 0 32 32" fill="none" xmlns="http://www.w3.org/2000/svg">
<g clip-path="url(#clip0_1529_565)">
<path d="M15.9121 31.8241C24.7001 31.8241 31.8241 24.7001 31.8241 15.9121C31.8241 7.12407 24.7001 0 15.9121 0C7.12407 0 0 7.12407 0 15.9121C0 24.7001 7.12407 31.8241 15.9121 31.8241Z" fill="#ED4E33"/>
<path d="M13.0435 8.52172C8.70268 10.1908 8.30503 14.4653 7.06034 16.4616C5.80089 18.4816 2.91556 19.5962 3.31012 20.6256C3.70467 21.655 6.59345 20.5493 8.87888 21.2062C11.1372 21.8552 14.2882 24.7655 18.6291 23.0964C20.8404 22.2462 22.4417 20.4961 23.1781 18.4232C23.2573 18.2007 23.1092 17.9628 22.8743 17.9408C22.7282 17.9271 22.5881 18.0037 22.5223 18.1348C21.8562 19.4636 20.7137 20.5579 19.2184 21.1327C16.7499 22.0818 14.049 21.3366 12.3902 19.4677C12.0134 19.0433 11.6912 18.5602 11.4368 18.0263C11.3669 17.8793 11.3004 17.73 11.2414 17.5755C11.1821 17.421 11.1317 17.2654 11.0855 17.1092C12.3902 16.5001 13.8957 15.8549 15.6025 15.1987C17.2761 14.5553 18.7991 14.0334 20.1552 13.6158C21.0726 13.3336 21.9135 13.0987 22.6726 12.9068C22.7276 12.893 22.7818 12.8793 22.8355 12.8659C22.9504 12.8374 23.0683 12.8989 23.1108 13.0095L23.1116 13.0115C23.1366 13.0771 23.1582 13.143 23.1814 13.2089C23.3315 13.6344 23.4441 14.0643 23.5184 14.4952C23.551 14.6837 23.7567 14.7864 23.9254 14.6957C24.5485 14.3606 25.1186 14.0337 25.6279 13.7192C27.5262 12.5483 28.5785 11.5553 28.3625 10.9926C28.1469 10.4294 26.7016 10.3972 24.5087 10.7989C23.8119 10.9266 23.0392 11.0983 22.2066 11.3109C22.0626 11.3476 21.917 11.3857 21.7695 11.4248C21.0687 11.611 20.3297 11.8242 19.5601 12.0628C18.129 12.5068 16.5935 13.0386 15.0085 13.6481C13.5255 14.2184 12.12 14.8097 10.8311 15.3989C10.8154 12.8982 12.3247 10.5342 14.7932 9.58511C16.2881 9.01032 17.8684 9.05737 19.2513 9.59885C19.3877 9.65241 19.543 9.61532 19.6428 9.50718C19.8025 9.33376 19.7535 9.0577 19.5461 8.94509C17.6141 7.89887 15.2549 7.67157 13.0435 8.52172Z" fill="white"/>
</g>
<defs>
<clipPath id="clip0_1529_565">
<rect width="32" height="32" fill="white"/>
</clipPath>
</defs>
</svg>
