<svg width="32" height="32" viewBox="0 0 32 32" fill="none" xmlns="http://www.w3.org/2000/svg">
<mask id="mask0_1482_1470" style="mask-type:alpha" maskUnits="userSpaceOnUse" x="0" y="0" width="32" height="32">
<circle cx="16" cy="16" r="16" fill="#D9D9D9"/>
</mask>
<g mask="url(#mask0_1482_1470)">
<rect width="32" height="32" fill="#292929"/>
</g>
<g clip-path="url(#clip0_1482_1470)">
<path d="M21.4306 6C19.1129 6 17.2222 7.89071 17.1612 10.2083V14.9046C16.7344 14.9046 16.3074 14.9656 15.8195 14.9656C15.3315 14.9656 14.9046 14.9656 14.4777 15.0266V10.2083C14.4777 7.89071 12.526 6 10.1474 6.06099C7.89071 6.06099 6.06099 7.95169 6 10.2083V21.4306C6.06099 23.7482 7.95169 25.6389 10.3303 25.5779C12.6479 25.5169 14.4777 23.6872 14.4777 21.4306V16.7344C14.9046 16.7344 15.3315 16.6734 15.8195 16.6734C16.3074 16.6734 16.7344 16.6734 17.1612 16.6124V21.3696C17.2222 23.6872 19.1129 25.5779 21.4916 25.5169C23.8092 25.4559 25.6389 23.6262 25.6389 21.3696V10.2083C25.6389 7.89071 23.7482 6 21.4306 6ZM10.2693 7.70774C11.6721 7.70774 12.7699 8.80556 12.7699 10.2083V15.1486C11.5501 15.3315 10.3303 15.6975 9.17151 16.1854C8.68358 16.4294 8.19566 16.6734 7.76872 17.0393V10.2083C7.76872 8.86655 8.86655 7.70774 10.2693 7.70774ZM12.7699 21.4306C12.7699 22.8334 11.6721 23.9312 10.2693 23.9312C8.86655 23.9312 7.76872 22.8334 7.76872 21.4306V20.3328C7.76872 19.3569 8.5616 18.3811 9.90339 17.8322C10.8182 17.4052 11.7941 17.1612 12.8309 16.9783L12.7699 21.4306ZM21.4306 23.9312C20.0278 23.9312 18.93 22.8334 18.93 21.4306V16.4904C20.1498 16.3074 21.3696 15.9415 22.5284 15.4535C23.0164 15.2096 23.5043 14.9656 23.9312 14.5996V21.4306C23.9312 22.8334 22.7724 23.9312 21.4306 23.9312ZM21.7965 13.8678C20.8817 14.2947 19.9058 14.5386 18.869 14.7216V10.2083C18.869 8.80556 19.9668 7.70774 21.3696 7.70774C22.7724 7.70774 23.8702 8.80556 23.8702 10.2083V11.3062C23.9312 12.343 23.1384 13.2579 21.7965 13.8678Z" fill="white"/>
</g>
<defs>
<clipPath id="clip0_1482_1470">
<rect width="20" height="20" fill="white" transform="translate(6 6)"/>
</clipPath>
</defs>
</svg>
