<svg width="32" height="32" viewBox="0 0 32 32" fill="none" xmlns="http://www.w3.org/2000/svg">
<mask id="mask0_1480_1358" style="mask-type:alpha" maskUnits="userSpaceOnUse" x="0" y="0" width="32" height="32">
<circle cx="16" cy="16" r="16" fill="#D9D9D9"/>
</mask>
<g mask="url(#mask0_1480_1358)">
<rect width="32" height="32" fill="#292929"/>
</g>
<g clip-path="url(#clip0_1480_1358)">
<path d="M16.2932 4.45999C15.2079 4.45999 14.1331 4.67378 13.1304 5.08914C12.1276 5.5045 11.2165 6.1133 10.449 6.88078C9.68158 7.64827 9.0728 8.5594 8.65747 9.56216C8.24214 10.5649 8.02838 11.6397 8.02841 12.725C8.02861 13.2472 8.07766 13.7682 8.17492 14.2812L9.24258 13.5499C11.1196 12.2626 14.1646 12.2626 16.0412 13.5499L17.1615 14.3172L17.7687 14.7346C19.4606 15.8938 22.2014 15.8938 23.8916 14.7346L24.3898 14.3935C24.6359 13.1923 24.6118 11.9514 24.3193 10.7606C24.0267 9.5699 23.4731 8.4591 22.6984 7.50867C21.9238 6.55824 20.9475 5.79195 19.8402 5.26529C18.7329 4.73863 17.5224 4.46478 16.2962 4.46356L16.2932 4.45999Z" fill="#F2B705"/>
<path d="M20.9377 17.6896C19.6925 17.6896 18.5018 17.3517 17.6053 16.7373L15.8791 15.5543C15.0527 14.9862 13.943 14.6734 12.7572 14.6734C11.5714 14.6734 10.4613 14.9839 9.63495 15.5543L8.51888 16.3185C8.46636 16.3549 8.40715 16.3806 8.34465 16.3941C8.28216 16.4076 8.2176 16.4086 8.15472 16.3971C8.09183 16.3855 8.03185 16.3617 7.97823 16.3268C7.92461 16.292 7.87841 16.2469 7.84228 16.1942C7.80615 16.1414 7.78082 16.082 7.76774 16.0194C7.75465 15.9569 7.75408 15.8923 7.76604 15.8295C7.77801 15.7667 7.80228 15.7069 7.83746 15.6535C7.87264 15.6001 7.91803 15.5542 7.97102 15.5184L9.08652 14.7542C10.0733 14.0772 11.3761 13.7051 12.7567 13.7051C14.1374 13.7051 15.4399 14.0772 16.4267 14.7542L18.1529 15.9372C18.9911 16.4502 19.9546 16.7216 20.9373 16.7216C21.92 16.7216 22.8836 16.4502 23.7218 15.9372L24.3773 15.4887C24.4297 15.4516 24.4891 15.4253 24.5518 15.4114C24.6145 15.3974 24.6794 15.396 24.7427 15.4074C24.806 15.4187 24.8663 15.4425 24.9203 15.4774C24.9743 15.5123 25.0208 15.5576 25.0571 15.6107C25.0934 15.6637 25.1188 15.7234 25.1318 15.7864C25.1448 15.8493 25.1452 15.9142 25.1329 15.9773C25.1206 16.0404 25.0959 16.1004 25.0602 16.1538C25.0244 16.2072 24.9785 16.253 24.9249 16.2885L24.2694 16.7371C23.3688 17.3536 22.1831 17.6896 20.9377 17.6896Z" fill="#53CBC8"/>
<path d="M12.7211 21.1605V16.4907C12.7175 16.3925 12.7216 16.2941 12.7335 16.1966C12.748 16.0681 12.8094 15.9494 12.9058 15.8633C13.0023 15.7772 13.1271 15.7297 13.2564 15.7298C13.3817 15.7332 13.5014 15.7827 13.5924 15.8688C13.6835 15.9549 13.7395 16.0716 13.7499 16.1966C13.7697 16.3587 13.7754 16.5222 13.7669 16.6853V25.9958C13.739 26.3408 13.5228 26.5686 13.2316 26.5624C12.9404 26.5562 12.7302 26.3197 12.7289 25.9695V22.8662L12.7211 21.1605Z" fill="#53CBC8"/>
<path d="M11.7391 18.8103V21.1308C11.7391 21.5279 11.5273 21.7908 11.2271 21.7814C10.927 21.772 10.6995 21.5045 10.6981 21.1259V16.4867C10.6981 16.0803 10.9348 15.8061 11.2429 15.8219C11.551 15.8376 11.7348 16.0834 11.7363 16.4894C11.7406 17.2632 11.7391 18.0367 11.7391 18.8103Z" fill="#53CBC8"/>
<path d="M14.7541 18.8072V17.176C14.7541 16.7978 14.9547 16.5535 15.2536 16.5535C15.5525 16.5535 15.7826 16.8056 15.7861 17.1618C15.7973 18.2722 15.7973 19.382 15.7861 20.4913C15.7861 20.8694 15.5633 21.0966 15.2571 21.0937C14.9508 21.0908 14.7546 20.8583 14.7511 20.4711V18.8055L14.7541 18.8072Z" fill="#53CBC8"/>
<path d="M8.67447 19.1464V17.5149C8.67447 17.1369 8.87527 16.8925 9.17404 16.8925C9.47281 16.8925 9.70304 17.1446 9.7066 17.5009C9.7168 18.6112 9.7168 19.7211 9.7066 20.8303C9.7066 21.2085 9.48223 21.4356 9.1776 21.4326C8.87296 21.4296 8.67494 21.1972 8.6716 20.81V19.1449L8.67447 19.1464Z" fill="#53CBC8"/>
<path d="M17.2879 17.758H17.2894C17.4252 17.7581 17.5555 17.8121 17.6515 17.9082C17.7475 18.0042 17.8015 18.1345 17.8015 18.2704V19.1575C17.8014 19.2933 17.7475 19.4235 17.6514 19.5195C17.5554 19.6156 17.4252 19.6695 17.2894 19.6696H17.2879C17.152 19.6696 17.0218 19.6156 16.9257 19.5196C16.8296 19.4236 16.7756 19.2933 16.7755 19.1575V18.2704C16.7756 18.1345 16.8296 18.0042 16.9256 17.9081C17.0217 17.812 17.152 17.7581 17.2879 17.758Z" fill="#53CBC8"/>
<path d="M19.3176 18.5349H19.3191C19.4549 18.5349 19.5852 18.5889 19.6812 18.685C19.7773 18.7811 19.8312 18.9113 19.8312 19.0472V24.0229C19.8312 24.0901 19.818 24.1567 19.7922 24.2188C19.7665 24.281 19.7288 24.3374 19.6812 24.3849C19.6337 24.4325 19.5772 24.4702 19.5151 24.4959C19.4529 24.5216 19.3864 24.5349 19.3191 24.5349H19.3176C19.2504 24.5349 19.1838 24.5216 19.1217 24.4959C19.0595 24.4702 19.0031 24.4325 18.9556 24.3849C18.908 24.3374 18.8703 24.2809 18.8446 24.2188C18.8189 24.1567 18.8056 24.0901 18.8056 24.0229V19.0472C18.8056 18.9114 18.8595 18.7811 18.9555 18.685C19.0515 18.5889 19.1818 18.5349 19.3176 18.5349Z" fill="#53CBC8"/>
<path d="M21.3331 18.7277H21.3346C21.4704 18.7277 21.6007 18.7816 21.6968 18.8777C21.7928 18.9737 21.8468 19.1039 21.8469 19.2398V23.4687C21.8469 23.5359 21.8336 23.6025 21.8078 23.6646C21.7821 23.7268 21.7443 23.7832 21.6968 23.8307C21.6492 23.8782 21.5927 23.9159 21.5306 23.9417C21.4684 23.9674 21.4018 23.9806 21.3346 23.9805H21.3331C21.2659 23.9806 21.1993 23.9674 21.1372 23.9416C21.075 23.9159 21.0186 23.8782 20.971 23.8307C20.9235 23.7832 20.8858 23.7267 20.8601 23.6646C20.8343 23.6025 20.8211 23.5359 20.8211 23.4687V19.2399C20.8211 19.1727 20.8343 19.106 20.86 19.0439C20.8857 18.9818 20.9234 18.9253 20.971 18.8777C21.0185 18.8302 21.075 18.7924 21.1371 18.7667C21.1992 18.7409 21.2658 18.7277 21.3331 18.7277Z" fill="#53CBC8"/>
<path d="M23.3768 18.2453H23.3783C23.5141 18.2453 23.6443 18.2992 23.7404 18.3953C23.8364 18.4913 23.8903 18.6215 23.8903 18.7574V20.5814C23.8903 20.7172 23.8364 20.8474 23.7403 20.9434C23.6443 21.0395 23.5141 21.0934 23.3783 21.0935H23.3768C23.3095 21.0935 23.2429 21.0802 23.1808 21.0545C23.1187 21.0288 23.0622 20.991 23.0147 20.9435C22.9671 20.8959 22.9294 20.8395 22.9037 20.7773C22.878 20.7152 22.8648 20.6486 22.8648 20.5814V18.7575C22.8647 18.6902 22.878 18.6236 22.9037 18.5615C22.9294 18.4993 22.9671 18.4429 23.0147 18.3953C23.0622 18.3477 23.1186 18.31 23.1808 18.2843C23.2429 18.2585 23.3095 18.2453 23.3768 18.2453Z" fill="#53CBC8"/>
</g>
<defs>
<clipPath id="clip0_1480_1358">
<rect width="23" height="23" fill="white" transform="translate(5 4)"/>
</clipPath>
</defs>
</svg>
