<svg width="32" height="32" viewBox="0 0 32 32" fill="none" xmlns="http://www.w3.org/2000/svg">
<mask id="mask0_2075_61" style="mask-type:alpha" maskUnits="userSpaceOnUse" x="0" y="0" width="32" height="32">
<circle cx="16" cy="16" r="16" fill="#D9D9D9"/>
</mask>
<g mask="url(#mask0_2075_61)">
<rect width="32" height="32" fill="#292929"/>
<path d="M15.8177 4.65392C15.883 4.65392 15.9433 4.67041 16.0035 4.70274L25.8015 10.358C25.9162 10.4233 25.9872 10.5438 25.9872 10.6744V21.9843C25.9872 22.1155 25.9162 22.2354 25.8015 22.3006L16.0035 27.961C15.949 27.994 15.8837 28.0098 15.8177 28.0098C15.7518 28.0098 15.6922 27.9933 15.632 27.961L5.83967 22.307C5.72493 22.2417 5.65392 22.1212 5.65392 21.9907V10.675C5.65392 10.5438 5.72493 10.424 5.83967 10.3587L15.632 4.70337C15.6922 4.67041 15.7518 4.65456 15.8177 4.65456M15.8177 3.00063C15.4684 3.00063 15.1191 3.09319 14.8079 3.27386L5.00985 8.92788C4.38733 9.28796 4 9.95422 4 10.675V21.985C4 22.7057 4.38733 23.3714 5.00985 23.7371L14.8079 29.3924C15.1191 29.5725 15.4684 29.6657 15.8177 29.6657C16.167 29.6657 16.5163 29.5731 16.8276 29.3924L26.6256 23.7371C27.2532 23.3771 27.6355 22.7108 27.6355 21.985V10.675C27.6355 9.95422 27.2481 9.28859 26.6256 8.92281L16.8276 3.26752C16.5163 3.08748 16.167 3 15.8177 3V3.00063Z" fill="#FF7700"/>
<path d="M13.3174 10.538H12.04C11.9417 10.538 11.86 10.5982 11.827 10.6908L7.70582 21.9735C7.67856 22.0502 7.73308 22.1263 7.81486 22.1263H9.09223C9.19049 22.1263 9.27226 22.066 9.30523 21.9735L13.4207 10.6851C13.4537 10.6141 13.3992 10.538 13.3167 10.538H13.3174Z" fill="#FF7700"/>
<path d="M14.9773 14.916C14.9393 14.8177 14.7973 14.8177 14.7643 14.916L14.0981 16.7392C14.0816 16.788 14.0816 16.8431 14.0981 16.8976L15.9542 21.9799C15.9872 22.0724 16.074 22.1326 16.1672 22.1326H17.4446C17.5264 22.1326 17.5809 22.0559 17.5536 21.9799L14.9773 14.9166V14.916Z" fill="#FF7700"/>
<path d="M15.5558 10.538H14.2784C14.1802 10.538 14.0984 10.5982 14.0654 10.6908L9.94996 21.9735C9.9227 22.0502 9.97722 22.1263 10.059 22.1263H11.3364C11.4346 22.1263 11.5164 22.066 11.5494 21.9735L15.6648 10.6851C15.6921 10.6141 15.6376 10.538 15.5558 10.538Z" fill="#FF7700"/>
<path d="M16.0961 11.8426C16.058 11.7444 15.916 11.7444 15.8831 11.8426L15.2174 13.6658C15.201 13.7146 15.201 13.7698 15.2174 13.8243L18.1925 21.9741C18.2254 22.0666 18.3123 22.1269 18.4055 22.1269H19.6828C19.7646 22.1269 19.8191 22.0502 19.7919 21.9741L16.0967 11.8432L16.0961 11.8426Z" fill="#FF7700"/>
<path d="M23.8198 10.538H22.5424C22.4441 10.538 22.3623 10.5982 22.3294 10.6908L19.3493 18.8406C19.3328 18.8894 19.3328 18.9446 19.3493 18.9991L20.0155 20.8223C20.0536 20.9205 20.1956 20.9205 20.2285 20.8223L23.9237 10.6914C23.951 10.6147 23.8965 10.5387 23.8198 10.5387V10.538Z" fill="#FF7700"/>
<path d="M18.8962 17.749C18.9342 17.8472 19.0762 17.8472 19.1092 17.749L21.6854 10.6908C21.7127 10.6141 21.6582 10.538 21.5764 10.538H20.299C20.2008 10.538 20.119 10.5982 20.086 10.6908L18.2299 15.773C18.2134 15.8218 18.2134 15.877 18.2299 15.9315L18.8955 17.749H18.8962Z" fill="#FF7700"/>
</g>
</svg>
