<svg width="32" height="32" viewBox="0 0 32 32" fill="none" xmlns="http://www.w3.org/2000/svg">
<mask id="mask0_1479_1251" style="mask-type:alpha" maskUnits="userSpaceOnUse" x="0" y="0" width="32" height="32">
<circle cx="16" cy="16" r="16" fill="#D9D9D9"/>
</mask>
<g mask="url(#mask0_1479_1251)">
<rect width="32" height="32" fill="#292929"/>
</g>
<g clip-path="url(#clip0_1479_1251)">
<path d="M12.2534 19.9564C11.8342 19.9564 11.4778 19.6549 11.4065 19.2357L9.01143 5.06817C8.97437 4.84133 9.02569 4.61161 9.15685 4.4221C9.28801 4.23259 9.4876 4.10912 9.71571 4.07179C10.1833 3.99426 10.6281 4.31011 10.708 4.78103L13.1002 18.9486C13.1373 19.1754 13.086 19.4051 12.9548 19.5946C12.8208 19.7841 12.6241 19.9076 12.3988 19.9478C12.3503 19.9536 12.3019 19.9564 12.2534 19.9564Z" fill="#CBFF00"/>
<path d="M16.2624 13.424C14.8937 13.424 13.6221 13.8375 12.5585 14.5438L12.8493 16.2581C13.7646 15.4569 14.9593 14.9688 16.2624 14.9688C19.1337 14.9688 21.4689 17.3205 21.4689 20.212C21.4689 23.1035 19.1337 25.4552 16.2624 25.4552C13.3911 25.4552 11.0559 23.1035 11.0559 20.212C11.0559 19.8272 11.0986 19.4511 11.1785 19.0893L10.7166 16.3586C9.96381 17.4526 9.52185 18.782 9.52185 20.212C9.52185 23.9534 12.5443 27 16.2624 27C19.9805 27 23.0029 23.9534 23.0029 20.212C23.0029 16.4705 19.9805 13.424 16.2624 13.424Z" fill="#CBFF00"/>
<path d="M15.8945 24.1716C16.4016 24.1716 16.8126 23.7577 16.8126 23.247C16.8126 22.7364 16.4016 22.3224 15.8945 22.3224C15.3874 22.3224 14.9764 22.7364 14.9764 23.247C14.9764 23.7577 15.3874 24.1716 15.8945 24.1716Z" fill="#1CD7D1"/>
<path d="M18.763 23.0949C19.27 23.0949 19.6811 22.6809 19.6811 22.1703C19.6811 21.6597 19.27 21.2457 18.763 21.2457C18.2559 21.2457 17.8448 21.6597 17.8448 22.1703C17.8448 22.6809 18.2559 23.0949 18.763 23.0949Z" fill="#1CD7D1"/>
<path d="M16.5075 21.1136C17.0146 21.1136 17.4257 20.6996 17.4257 20.189C17.4257 19.6784 17.0146 19.2644 16.5075 19.2644C16.0005 19.2644 15.5894 19.6784 15.5894 20.189C15.5894 20.6996 16.0005 21.1136 16.5075 21.1136Z" fill="#1CD7D1"/>
<path d="M13.6562 22.0583C14.1633 22.0583 14.5744 21.6443 14.5744 21.1337C14.5744 20.6231 14.1633 20.2091 13.6562 20.2091C13.1492 20.2091 12.7381 20.6231 12.7381 21.1337C12.7381 21.6443 13.1492 22.0583 13.6562 22.0583Z" fill="#1CD7D1"/>
<path d="M19.3474 20.166C19.8545 20.166 20.2656 19.7521 20.2656 19.2414C20.2656 18.7308 19.8545 18.3168 19.3474 18.3168C18.8404 18.3168 18.4293 18.7308 18.4293 19.2414C18.4293 19.7521 18.8404 20.166 19.3474 20.166Z" fill="#1CD7D1"/>
<path d="M17.1206 18.0555C17.6276 18.0555 18.0387 17.6416 18.0387 17.131C18.0387 16.6203 17.6276 16.2064 17.1206 16.2064C16.6135 16.2064 16.2025 16.6203 16.2025 17.131C16.2025 17.6416 16.6135 18.0555 17.1206 18.0555Z" fill="#1CD7D1"/>
<path d="M14.2436 19.1295C14.7507 19.1295 15.1618 18.7155 15.1618 18.2049C15.1618 17.6942 14.7507 17.2803 14.2436 17.2803C13.7366 17.2803 13.3255 17.6942 13.3255 18.2049C13.3255 18.7155 13.7366 19.1295 14.2436 19.1295Z" fill="#1CD7D1"/>
</g>
<defs>
<clipPath id="clip0_1479_1251">
<rect width="14" height="23" fill="white" transform="translate(9 4)"/>
</clipPath>
</defs>
</svg>
