<svg width="32" height="32" viewBox="0 0 32 32" fill="none" xmlns="http://www.w3.org/2000/svg">
<path d="M32.9004 16.8999C32.9004 25.7352 25.7357 32.8999 16.9004 32.8999C8.06506 32.8999 0.900391 25.7352 0.900391 16.8999C0.900391 8.06457 8.06506 0.899902 16.9004 0.899902C25.7357 0.899902 32.9004 8.06457 32.9004 16.8999Z" fill="black"/>
<path d="M18.0332 19.6045H10.7188V8.91602H18.0332C20.5415 8.91602 22.5772 10.9517 22.5772 13.46V15.0558C22.5772 17.5688 20.5415 19.6045 18.0332 19.6045Z" fill="#A0CC3A"/>
<path d="M19.9191 24.9019H10.7188V19.5576C10.7188 16.6047 13.1101 14.2134 16.063 14.2134H19.9191C22.872 14.2134 25.2634 16.6047 25.2634 19.5576C25.2634 22.5059 22.872 24.9019 19.9191 24.9019Z" fill="#AFB1AB"/>
<path d="M22.5772 14.9716V15.0605C22.5772 17.5688 20.5462 19.6045 18.0332 19.6045H10.7188C10.7188 18.1257 11.3178 16.792 12.2818 15.8233C13.2505 14.8593 14.5842 14.2603 16.063 14.2603H19.9191C20.8878 14.2603 21.7957 14.5176 22.5772 14.9716Z" fill="#596E36"/>
</svg>
