<svg width="32" height="32" viewBox="0 0 32 32" fill="none" xmlns="http://www.w3.org/2000/svg">
<g clip-path="url(#clip0_1671_457)">
<path d="M32 15.5191C32 6.95035 24.8367 0.00390625 16 0.00390625C7.16331 0.00390625 0 6.95035 0 15.5191C0 24.0878 7.16331 31.0342 16 31.0342C24.8367 31.0342 32 24.0878 32 15.5191Z" fill="#00D2FF"/>
<path d="M26.7964 14.7446C26.7964 14.7078 26.1037 14.2788 25.7393 14.0549C25.5819 13.9591 25.4358 13.8469 25.3034 13.7204C25.0306 13.4589 24.5762 13.0018 24.4288 12.7204C24.3338 12.5406 24.3729 12.2171 24.4467 11.9085C24.5747 11.3664 24.4777 10.7974 24.1768 10.324L23.7028 9.5756C23.4847 9.23416 23.3093 8.86873 23.1804 8.48706C23.0165 7.99662 22.7315 7.55242 22.3503 7.19309C21.5791 6.46367 19.4447 6.10455 17.6717 6.04725C17.5621 6.01518 17.4507 5.98948 17.338 5.97029C16.5487 5.83996 15.7064 5.62937 14.9508 5.76611C13.8291 5.96864 12.695 6.30956 11.8485 7.15068C11.6778 7.32052 11.4112 7.40058 11.2273 7.56152C10.8627 7.88052 10.3718 7.88052 10.048 8.23468C9.85833 8.44154 9.77065 9.11614 9.27358 9.37369C8.45139 9.80088 7.84297 10.2715 7.64371 10.5115C7.4931 10.6921 7.37641 10.9033 7.22985 11.0878C7.08051 11.2771 6.37203 11.5975 6.16617 11.798C5.9603 11.9984 5.68425 12.4862 5.80819 13.0626C5.81971 13.1151 5.82953 13.1586 5.83657 13.1937C5.91763 13.4867 6.13801 14.0177 6.08702 14.2612C6.02771 14.5493 5.26313 16.6977 6.9715 17.2703C7.32713 17.3897 7.47774 17.622 7.51657 17.9757C7.54665 18.2397 7.6275 18.5105 7.76937 18.8019C7.92489 19.1199 8.23102 19.2928 8.25598 19.3139C8.35902 19.4021 8.83859 19.8874 8.87806 19.9581C9.48414 21.0444 9.3139 21.5872 10.474 21.9563C10.7721 22.0517 11.0583 22.1789 11.3273 22.3357C11.6552 22.527 12.0063 22.6779 12.3727 22.785C12.3833 22.7879 12.3996 22.7935 12.4185 22.8001C12.6762 22.1962 12.9376 21.6234 13.1981 21.0843C11.1097 19.0078 11.6589 16.6813 11.8592 16.0574C11.8651 16.0389 11.8757 16.0222 11.89 16.0087C11.9044 15.9952 11.922 15.9853 11.9412 15.9801C11.9604 15.9749 11.9807 15.9744 12.0002 15.9787C12.0196 15.9831 12.0377 15.9921 12.0527 16.0049C12.4909 16.3772 13.8233 17.7204 13.667 20.1451C14.1278 19.2527 14.576 18.4679 14.9854 17.7978C13.4784 15.3212 14.6014 13.1503 14.9553 12.5779C14.9657 12.561 14.9803 12.547 14.9978 12.537C15.0153 12.5271 15.0351 12.5216 15.0554 12.5211C15.0757 12.5205 15.0958 12.525 15.1138 12.534C15.1318 12.543 15.1472 12.5562 15.1586 12.5725C15.4658 13.0148 16.3006 14.4647 15.7837 16.5537C16.1585 15.998 16.4627 15.5868 16.6615 15.3286C17.2 11.8756 19.8893 10.7425 20.596 10.5024C20.615 10.4958 20.6353 10.494 20.6552 10.4971C20.675 10.5002 20.6937 10.5081 20.7096 10.52C20.7255 10.532 20.738 10.5476 20.746 10.5655C20.754 10.5834 20.7572 10.6029 20.7554 10.6224C20.6901 11.3365 20.2361 14.0862 17.1168 15.4982C16.742 15.9772 16.3808 16.4813 16.0354 16.9985C17.2281 16.0957 18.8998 15.6702 20.2886 15.997C20.3082 16.0014 20.3264 16.0104 20.3415 16.0233C20.3566 16.0361 20.3682 16.0524 20.3752 16.0707C20.3821 16.089 20.3843 16.1087 20.3815 16.128C20.3787 16.1473 20.371 16.1656 20.359 16.1813C19.9597 16.694 18.3714 18.423 15.3798 18.0268C14.8742 18.8532 14.4109 19.6907 13.9996 20.4916C15.2913 19.5438 17.1791 19.1807 18.6438 19.658C18.6633 19.664 18.6809 19.6747 18.6951 19.6891C18.7092 19.7035 18.7194 19.7211 18.7247 19.7403C18.73 19.7595 18.7303 19.7796 18.7254 19.7989C18.7206 19.8182 18.7109 19.8361 18.6972 19.8508C18.2423 20.3266 16.4909 21.8837 13.6113 21.2653C13.3414 21.8185 12.9389 22.7281 12.7424 23.1776C12.6748 23.3322 12.6125 23.4879 12.5572 23.6474C12.4292 24.0136 12.2585 24.4704 12.0535 24.9273C12.0247 24.9925 12.01 25.0627 12.0103 25.1336C12.0106 25.2046 12.026 25.2747 12.0554 25.3396C12.0849 25.4045 12.1278 25.4629 12.1815 25.511C12.2352 25.5592 12.2985 25.5961 12.3676 25.6195C14.6399 26.4063 17.107 26.4949 19.4332 25.8733C19.51 25.8523 19.581 25.8147 19.6408 25.7632C19.7006 25.7118 19.7476 25.648 19.7783 25.5765C19.8268 25.465 19.8745 25.3595 19.8745 25.3595C19.8745 25.3595 20.8789 23.0972 21.0265 22.1116C21.0848 21.7242 21.2008 21.4335 21.3205 21.2221C21.399 21.0839 21.5124 20.9673 21.6502 20.8834C21.7879 20.7995 21.9455 20.7509 22.1079 20.7424C22.8734 20.7031 24.5032 20.5994 25.0961 20.4172C25.8841 20.1745 25.5424 18.7829 25.5001 18.6327C25.4579 18.4825 25.8792 18.134 25.9661 17.9304C26.0529 17.7268 25.7527 17.6571 25.6305 17.4339C25.5082 17.2107 25.9345 17.0498 25.9953 16.847C26.0561 16.6443 25.8566 16.4213 25.7758 16.2713C25.6949 16.1213 25.664 15.9337 25.664 15.9337C25.664 15.9337 26.24 15.5243 26.5468 15.2659C26.8535 15.0076 26.7961 14.7947 26.7955 14.7444" fill="black"/>
</g>
<defs>
<clipPath id="clip0_1671_457">
<rect width="32" height="32" fill="white"/>
</clipPath>
</defs>
</svg>
