<svg width="32" height="32" viewBox="0 0 32 32" fill="none" xmlns="http://www.w3.org/2000/svg">
<mask id="mask0_1716_563" style="mask-type:alpha" maskUnits="userSpaceOnUse" x="0" y="0" width="32" height="32">
<circle cx="16" cy="16" r="16" fill="#D9D9D9"/>
</mask>
<g mask="url(#mask0_1716_563)">
<rect width="32" height="32" fill="#292929"/>
</g>
<g clip-path="url(#clip0_1716_563)">
<path d="M16.5 30C19.17 30 21.7801 29.2082 24.0002 27.7248C26.2203 26.2414 27.9506 24.1331 28.9724 21.6662C29.9942 19.1994 30.2615 16.4851 29.7406 13.8663C29.2197 11.2475 27.9339 8.84207 26.0459 6.95407C24.158 5.06606 21.7524 3.78031 19.1337 3.25941C16.5149 2.7385 13.8006 3.00585 11.3338 4.02763C8.86697 5.04942 6.75856 6.77975 5.27516 8.9998C3.79176 11.2199 3 13.83 3 16.5C3 20.0805 4.42232 23.5142 6.95406 26.0459C9.4858 28.5777 12.9195 30 16.5 30Z" fill="#0052FF"/>
<path fill-rule="evenodd" clip-rule="evenodd" d="M16.4682 26.007C21.7188 26.007 25.9753 21.7507 25.9753 16.5C25.9753 11.2494 21.7188 6.99298 16.4682 6.99298C11.4871 6.99298 7.40062 10.8238 6.99433 15.7H21.1021V17.2831H6.99292C7.39111 22.1674 11.4812 26.007 16.4682 26.007Z" fill="white"/>
</g>
<defs>
<clipPath id="clip0_1716_563">
<rect width="27" height="27" fill="white" transform="translate(3 3)"/>
</clipPath>
</defs>
</svg>
