<svg width="30" height="33" viewBox="0 0 30 33" fill="none" xmlns="http://www.w3.org/2000/svg">
<path d="M15.019 9.20897C17.4458 9.20897 19.4131 7.24169 19.4131 4.81493C19.4131 2.38818 17.4458 0.420898 15.019 0.420898C12.5923 0.420898 10.625 2.38818 10.625 4.81493C10.625 7.24169 12.5923 9.20897 15.019 9.20897Z" fill="#FF931E"/>
<path d="M27.228 18.395C25.1265 17.1851 22.4359 17.9015 21.226 20.003C20.8121 20.7194 20.621 21.5154 20.6369 22.2955C20.6847 24.2378 18.9335 25.2408 17.2777 24.2378C17.2141 24.206 17.1504 24.1582 17.0708 24.1264C15.3991 23.1871 15.3991 21.197 17.0708 20.2736C18.4399 19.5254 19.3792 18.0766 19.3792 16.405C19.3792 16.3731 19.3792 16.3413 19.3792 16.3094C19.3315 14.3671 21.0827 13.3642 22.7384 14.3671C24.0598 15.1791 25.7792 15.2428 27.2121 14.4149C29.3136 13.2049 30.03 10.5144 28.82 8.4129C27.6101 6.31141 24.9195 5.59499 22.818 6.80494C21.3852 7.6328 20.5892 9.16116 20.621 10.7054C20.6688 12.6477 18.9175 13.6507 17.2777 12.6477C16.6091 12.2338 15.829 11.995 14.9852 11.995C14.1414 11.995 13.3613 12.2338 12.6927 12.6318C11.0369 13.6189 9.3016 12.6159 9.34936 10.6895C9.3812 9.12932 8.58518 7.61688 7.15235 6.78902C5.05085 5.57907 2.3603 6.31141 1.15035 8.4129C-0.0596041 10.5144 0.672735 13.2049 2.77423 14.4149C4.20707 15.2428 5.92647 15.1632 7.24787 14.3671C8.90359 13.3642 10.6389 14.3671 10.5912 16.3094C10.5912 16.3413 10.5912 16.3731 10.5912 16.405C10.5912 18.0766 11.5145 19.5254 12.8996 20.2736C14.5713 21.2129 14.5713 23.203 12.8996 24.1264C12.8359 24.1582 12.7723 24.206 12.7086 24.2378C11.0528 25.2249 9.31752 24.2219 9.36528 22.2955C9.38121 21.5154 9.19016 20.7194 8.77623 19.987C7.56628 17.8856 4.87573 17.1691 2.77423 18.3791C0.672735 19.6209 -0.0436836 22.3114 1.16627 24.4129C2.37622 26.5144 5.06677 27.2308 7.16827 26.0209C7.20011 26.005 7.21603 25.989 7.24787 25.9731C8.90359 24.9701 10.6389 25.9731 10.5912 27.9154C10.5912 27.9473 10.5912 27.9791 10.5912 28.0269C10.5912 30.4468 12.5653 32.4209 14.9852 32.4209C17.4051 32.4209 19.3792 30.4468 19.3792 28.0269C19.3792 27.995 19.3792 27.9632 19.3792 27.9313C19.3315 25.989 21.0827 24.9861 22.7384 25.989C22.7703 26.005 22.8021 26.0209 22.834 26.0527C24.9355 27.2627 27.626 26.5463 28.836 24.4448C30.0459 22.2955 29.3295 19.605 27.228 18.395Z" fill="#FF931E"/>
</svg>
