<svg width="32" height="32" viewBox="0 0 32 32" fill="none" xmlns="http://www.w3.org/2000/svg">
<g clip-path="url(#clip0_1334_1066)">
<mask id="mask0_1334_1066" style="mask-type:alpha" maskUnits="userSpaceOnUse" x="0" y="0" width="32" height="32">
<path d="M15.5191 31.0378C24.0878 31.0378 31.0342 24.0913 31.0342 15.5223C31.0342 6.95336 24.0878 0.00683594 15.5191 0.00683594C6.95028 0.00683594 0.00390625 6.95336 0.00390625 15.5223C0.00390625 24.0913 6.95028 31.0378 15.5191 31.0378Z" fill="#D9D9D9"/>
</mask>
<g mask="url(#mask0_1334_1066)">
<path d="M31.0342 0.00683594H0.00390625V31.0378H31.0342V0.00683594Z" fill="#292929"/>
</g>
<mask id="mask1_1334_1066" style="mask-type:luminance" maskUnits="userSpaceOnUse" x="5" y="4" width="22" height="22">
<path d="M26.18 4.85449H5.81641V25.2186H26.18V4.85449Z" fill="white"/>
</mask>
<g mask="url(#mask1_1334_1066)">
<path d="M17.9031 6.4834C16.248 6.48405 14.6608 7.14211 13.4909 8.31285C12.3208 9.48359 11.6638 11.0711 11.6641 12.7264C11.6641 12.7307 11.6641 12.7349 11.6641 12.7394V12.7495C11.6685 12.828 11.7029 12.9017 11.76 12.9555C11.8172 13.0094 11.8927 13.0394 11.9713 13.0392H23.8348C23.9134 13.0394 23.9889 13.0094 24.046 12.9555C24.1032 12.9017 24.1375 12.8279 24.1419 12.7495L24.1424 12.7394C24.1424 12.7349 24.1424 12.7307 24.1424 12.7264C24.1428 11.0711 23.4856 9.48349 22.3156 8.31274C21.1455 7.14199 19.5583 6.48397 17.9031 6.4834Z" fill="#53CBC8"/>
<path d="M7.5328 19.6973C7.53274 19.7725 7.51042 19.8458 7.46867 19.9082C7.42692 19.9706 7.36761 20.0192 7.29823 20.0479C7.22886 20.0766 7.15253 20.084 7.0789 20.0694C7.00527 20.0548 6.93765 20.0186 6.88457 19.9654C6.8315 19.9123 6.79536 19.8447 6.78072 19.7711C6.76609 19.6974 6.77361 19.6211 6.80234 19.5518C6.83108 19.4823 6.87973 19.4231 6.94214 19.3814C7.00455 19.3397 7.07794 19.3174 7.15302 19.3174C7.20291 19.3174 7.25231 19.3272 7.2984 19.3463C7.34449 19.3654 7.38636 19.3934 7.42164 19.4287C7.45691 19.4639 7.48487 19.5058 7.50395 19.552C7.52302 19.598 7.53283 19.6475 7.5328 19.6973Z" fill="#E1147B"/>
<path d="M23.4238 17.5947H10.6942C10.6294 17.5948 10.5658 17.6117 10.5096 17.6438C10.4532 17.6758 10.4062 17.7219 10.3731 17.7775C10.34 17.8332 10.3218 17.8964 10.3204 17.9612C10.319 18.026 10.3346 18.09 10.3653 18.1469C10.3673 18.1509 10.3695 18.1548 10.3716 18.1587C10.4036 18.2181 10.4511 18.2676 10.5091 18.302C10.567 18.3366 10.6332 18.3547 10.7006 18.3546H23.4177C23.4852 18.3547 23.5513 18.3366 23.6093 18.302C23.6672 18.2675 23.7147 18.2181 23.7468 18.1587L23.7531 18.1469C23.7839 18.0899 23.7993 18.0259 23.7978 17.9611C23.7965 17.8963 23.7782 17.8331 23.7451 17.7774C23.7119 17.7218 23.6649 17.6757 23.6085 17.6437C23.5523 17.6117 23.4886 17.5948 23.4238 17.5947Z" fill="#E1147B"/>
<path d="M25.1155 14.1504H10.6941C10.6432 14.1505 10.5929 14.161 10.5462 14.1812C10.4995 14.2015 10.4573 14.231 10.4224 14.268C10.3875 14.3051 10.3605 14.3488 10.343 14.3966C10.3255 14.4444 10.3181 14.4953 10.3209 14.5461C10.3209 14.5501 10.3209 14.5541 10.3215 14.5581C10.3269 14.6534 10.3686 14.7431 10.438 14.8085C10.5075 14.8741 10.5994 14.9105 10.6949 14.9103H25.1155C25.211 14.9105 25.3028 14.874 25.3723 14.8085C25.4418 14.743 25.4835 14.6534 25.4888 14.5581C25.4888 14.5541 25.4888 14.5501 25.4895 14.5461C25.4923 14.4952 25.4847 14.4443 25.4673 14.3965C25.4497 14.3486 25.4227 14.3048 25.3877 14.2677C25.3526 14.2307 25.3105 14.2012 25.2636 14.181C25.2169 14.1609 25.1665 14.1504 25.1155 14.1504Z" fill="#E1147B"/>
<path d="M19.6859 22.7607H13.1865C13.1022 22.7607 13.0204 22.7893 12.9543 22.8416C12.8883 22.894 12.8417 22.9672 12.8224 23.0492C12.8031 23.1314 12.8121 23.2175 12.8479 23.2939C12.8837 23.3702 12.9443 23.4322 13.0198 23.4698L13.0436 23.4817C13.0954 23.5074 13.1524 23.5208 13.2103 23.5206H19.6619C19.7197 23.5208 19.7768 23.5074 19.8287 23.4817L19.8523 23.4698C19.9278 23.4322 19.9883 23.3702 20.0242 23.2939C20.06 23.2177 20.069 23.1315 20.0497 23.0494C20.0305 22.9674 19.984 22.8942 19.918 22.8418C19.852 22.7894 19.7702 22.7608 19.6859 22.7607Z" fill="#E1147B"/>
<path d="M23.654 21.0391H17.1548C17.0706 21.0393 16.9888 21.0679 16.9229 21.1202C16.8569 21.1726 16.8105 21.2457 16.7912 21.3277C16.7719 21.4098 16.7808 21.4959 16.8166 21.5722C16.8524 21.6485 16.9128 21.7105 16.9881 21.7482L17.0119 21.7601C17.0637 21.7857 17.1208 21.799 17.1787 21.7989H23.6299C23.6877 21.799 23.7448 21.7857 23.7967 21.7601L23.8203 21.7482C23.8957 21.7105 23.9562 21.6485 23.9919 21.5723C24.0277 21.496 24.0367 21.4099 24.0174 21.3279C23.9982 21.2459 23.9518 21.1728 23.8859 21.1203C23.82 21.068 23.7382 21.0394 23.654 21.0391Z" fill="#E1147B"/>
<path d="M14.7945 19.9577L14.7834 19.9459C14.7339 19.8925 14.7011 19.8259 14.6889 19.7541C14.6767 19.6823 14.6857 19.6086 14.7148 19.5418C14.744 19.4751 14.7919 19.4183 14.8528 19.3785C14.9138 19.3386 14.9849 19.3174 15.0578 19.3174H25.6061C25.679 19.3174 25.7501 19.3386 25.811 19.3785C25.872 19.4183 25.9199 19.4751 25.949 19.5418C25.9782 19.6086 25.9872 19.6823 25.975 19.7541C25.9628 19.8259 25.9299 19.8925 25.8805 19.9459L25.8694 19.9577C25.8343 19.9953 25.7918 20.0253 25.7447 20.0458C25.6976 20.0664 25.6467 20.0771 25.5953 20.0773H15.0686C15.0172 20.0771 14.9663 20.0664 14.9192 20.0458C14.8721 20.0253 14.8296 19.9953 14.7945 19.9577Z" fill="#E1147B"/>
<path d="M8.50981 19.3174H13.5469C13.6312 19.3175 13.713 19.3461 13.779 19.3985C13.8449 19.4508 13.8914 19.5239 13.9106 19.606C13.9299 19.688 13.921 19.7741 13.8852 19.8504C13.8495 19.9268 13.789 19.9887 13.7136 20.0264L13.6899 20.0384C13.6381 20.0641 13.5811 20.0774 13.5232 20.0773H8.53414C8.47628 20.0774 8.41918 20.0641 8.36737 20.0384L8.34364 20.0264C8.26831 19.9888 8.20789 19.9269 8.17214 19.8505C8.13637 19.7743 8.12738 19.6882 8.14659 19.6063C8.1658 19.5242 8.21212 19.4511 8.27802 19.3987C8.34393 19.3463 8.4256 19.3176 8.50981 19.3174Z" fill="#E1147B"/>
<path d="M9.72033 14.5302C9.72024 14.6054 9.69796 14.6787 9.65622 14.7411C9.61448 14.8036 9.55516 14.8522 9.48579 14.8809C9.41642 14.9096 9.3401 14.9171 9.26646 14.9024C9.19283 14.8878 9.12519 14.8516 9.07211 14.7986C9.01903 14.7454 8.98288 14.6777 8.96824 14.6041C8.95358 14.5305 8.9611 14.4542 8.98983 14.3848C9.01855 14.3154 9.0672 14.2561 9.12962 14.2144C9.19204 14.1727 9.26544 14.1504 9.34051 14.1504C9.3904 14.1504 9.43979 14.1602 9.48587 14.1793C9.53196 14.1984 9.57383 14.2264 9.6091 14.2616C9.64436 14.2969 9.67234 14.3388 9.69142 14.3849C9.71054 14.431 9.72033 14.4804 9.72033 14.5302Z" fill="#E1147B"/>
<path d="M18.669 16.3554C18.6701 16.3516 18.671 16.3475 18.6722 16.3437C18.687 16.2882 18.6889 16.2301 18.6777 16.1739C18.6665 16.1176 18.6425 16.0647 18.6076 16.0192C18.5726 15.9737 18.5277 15.9369 18.4762 15.9114C18.4248 15.8861 18.3682 15.873 18.3108 15.873H7.76083C7.70346 15.873 7.64685 15.8861 7.59539 15.9114C7.54392 15.9368 7.49897 15.9736 7.46403 16.0192C7.42909 16.0647 7.4051 16.1176 7.39391 16.1739C7.38271 16.2301 7.38462 16.2882 7.39948 16.3437C7.4005 16.3475 7.40162 16.3516 7.40274 16.3554C7.42413 16.4349 7.47109 16.5051 7.53637 16.5552C7.60164 16.6054 7.68159 16.6326 7.76388 16.6328H18.3078C18.3901 16.6326 18.47 16.6054 18.5353 16.5552C18.6006 16.5051 18.6476 16.4349 18.669 16.3554Z" fill="#E1147B"/>
<path d="M6.7828 16.2519C6.78276 16.327 6.76045 16.4004 6.71871 16.4628C6.67696 16.5253 6.61766 16.5739 6.54828 16.6026C6.47889 16.6313 6.40256 16.6387 6.32892 16.6241C6.25528 16.6094 6.18765 16.5733 6.13456 16.5201C6.08149 16.467 6.04535 16.3994 6.03072 16.3257C6.01609 16.2521 6.02361 16.1758 6.05235 16.1064C6.08109 16.037 6.12976 15.9778 6.19219 15.936C6.25463 15.8943 6.32803 15.8721 6.40311 15.8721C6.50383 15.8721 6.6004 15.9121 6.6716 15.9834C6.7428 16.0546 6.7828 16.1513 6.7828 16.2519Z" fill="#E1147B"/>
<path d="M9.72033 17.9747C9.72024 18.0497 9.69796 18.1231 9.65622 18.1855C9.61448 18.2479 9.55516 18.2965 9.48579 18.3252C9.41642 18.354 9.3401 18.3615 9.26646 18.3468C9.19283 18.3321 9.12519 18.2959 9.07211 18.2429C9.01903 18.1897 8.98288 18.1222 8.96824 18.0485C8.95358 17.9749 8.9611 17.8985 8.98983 17.8291C9.01855 17.7598 9.0672 17.7005 9.12962 17.6587C9.19204 17.617 9.26544 17.5947 9.34051 17.5947C9.44125 17.5947 9.53785 17.6348 9.60907 17.706C9.68029 17.7773 9.72033 17.8739 9.72033 17.9747Z" fill="#E1147B"/>
<path d="M16.1812 21.419C16.1812 21.4941 16.1589 21.5675 16.1172 21.6299C16.0754 21.6923 16.0161 21.7409 15.9467 21.7696C15.8774 21.7984 15.8011 21.8058 15.7274 21.7912C15.6538 21.7765 15.5861 21.7404 15.533 21.6872C15.48 21.6342 15.4438 21.5665 15.4292 21.4929C15.4145 21.4192 15.422 21.3429 15.4507 21.2735C15.4795 21.2041 15.5281 21.1449 15.5905 21.1032C15.653 21.0614 15.7264 21.0392 15.8014 21.0391C15.8513 21.0391 15.9007 21.049 15.9468 21.0681C15.9929 21.0871 16.0348 21.1151 16.0701 21.1504C16.1053 21.1857 16.1333 21.2276 16.1524 21.2736C16.1714 21.3197 16.1813 21.3692 16.1812 21.419Z" fill="#E1147B"/>
<path d="M12.2085 23.1407C12.2085 23.2157 12.1862 23.2891 12.1445 23.3515C12.1028 23.4139 12.0434 23.4626 11.9741 23.4913C11.9046 23.52 11.8283 23.5275 11.7547 23.5129C11.681 23.4981 11.6134 23.4619 11.5603 23.4089C11.5073 23.3558 11.4711 23.2881 11.4565 23.2145C11.4419 23.1408 11.4494 23.0645 11.4782 22.9951C11.5069 22.9257 11.5556 22.8664 11.618 22.8247C11.6805 22.783 11.7538 22.7607 11.8289 22.7607C11.8788 22.7607 11.9281 22.7706 11.9743 22.7897C12.0203 22.8088 12.0621 22.8368 12.0974 22.8721C12.1327 22.9074 12.1606 22.9493 12.1797 22.9953C12.1988 23.0414 12.2085 23.0907 12.2085 23.1407Z" fill="#E1147B"/>
</g>
</g>
<defs>
<clipPath id="clip0_1334_1066">
<rect y="0.00195312" width="32" height="32" rx="16" fill="white"/>
</clipPath>
</defs>
</svg>
