<svg width="32" height="32" viewBox="0 0 32 32" fill="none" xmlns="http://www.w3.org/2000/svg">
<mask id="mask0_1479_1336" style="mask-type:alpha" maskUnits="userSpaceOnUse" x="0" y="0" width="32" height="32">
<circle cx="16" cy="16" r="16" fill="#D9D9D9"/>
</mask>
<g mask="url(#mask0_1479_1336)">
<rect width="32" height="32" fill="#292929"/>
</g>
<g clip-path="url(#clip0_1479_1336)">
<path d="M18.4617 6.67999C16.7549 6.68066 15.1181 7.35927 13.9116 8.56657C12.705 9.77387 12.0274 11.411 12.0277 13.1179C12.0277 13.1224 12.0277 13.1267 12.0277 13.1313V13.1418C12.0323 13.2227 12.0677 13.2987 12.1266 13.3542C12.1856 13.4098 12.2635 13.4407 12.3445 13.4405H24.5788C24.6598 13.4407 24.7377 13.4098 24.7966 13.3542C24.8556 13.2987 24.8909 13.2226 24.8955 13.1418L24.896 13.1313C24.896 13.1267 24.896 13.1224 24.896 13.1179C24.8964 11.4109 24.2187 9.77377 23.0121 8.56646C21.8054 7.35915 20.1686 6.68058 18.4617 6.67999Z" fill="#53CBC8"/>
<path d="M7.76789 20.3058C7.76783 20.3833 7.74481 20.4589 7.70176 20.5233C7.6587 20.5876 7.59754 20.6377 7.52599 20.6673C7.45445 20.6969 7.37574 20.7046 7.29981 20.6895C7.22388 20.6744 7.15414 20.6371 7.09941 20.5823C7.04468 20.5275 7.00741 20.4578 6.99231 20.3819C6.97722 20.3059 6.98498 20.2272 7.01461 20.1557C7.04424 20.0841 7.09441 20.023 7.15877 19.98C7.22314 19.937 7.29882 19.914 7.37624 19.914C7.42769 19.914 7.47864 19.9241 7.52617 19.9438C7.5737 19.9635 7.61688 19.9924 7.65326 20.0288C7.68963 20.0651 7.71847 20.1083 7.73814 20.1559C7.75781 20.2034 7.76792 20.2544 7.76789 20.3058Z" fill="#E1147B"/>
<path d="M24.1532 18.1382H11.0258C10.959 18.1383 10.8934 18.1557 10.8354 18.1888C10.7773 18.2218 10.7288 18.2693 10.6947 18.3267C10.6605 18.3841 10.6418 18.4493 10.6403 18.5161C10.6389 18.5829 10.6549 18.6489 10.6866 18.7076C10.6887 18.7117 10.6909 18.7158 10.6931 18.7198C10.7261 18.781 10.7751 18.8321 10.8349 18.8676C10.8946 18.9032 10.9629 18.9219 11.0324 18.9218H24.1469C24.2165 18.9219 24.2847 18.9032 24.3445 18.8676C24.4042 18.832 24.4532 18.781 24.4863 18.7198L24.4928 18.7076C24.5245 18.6488 24.5404 18.5828 24.5389 18.516C24.5375 18.4492 24.5187 18.384 24.4845 18.3266C24.4503 18.2692 24.4018 18.2217 24.3437 18.1887C24.2857 18.1557 24.22 18.1383 24.1532 18.1382Z" fill="#E1147B"/>
<path d="M25.8975 14.5865H11.0255C10.973 14.5866 10.9211 14.5974 10.8729 14.6183C10.8248 14.6392 10.7813 14.6696 10.7453 14.7078C10.7093 14.746 10.6814 14.7911 10.6634 14.8404C10.6454 14.8897 10.6377 14.9422 10.6406 14.9946C10.6406 14.9987 10.6406 15.0028 10.6412 15.0069C10.6468 15.1052 10.6898 15.1977 10.7614 15.2652C10.833 15.3328 10.9278 15.3703 11.0263 15.3701H25.8975C25.996 15.3703 26.0907 15.3327 26.1624 15.2652C26.234 15.1976 26.277 15.1052 26.2825 15.0069C26.2825 15.0028 26.2825 14.9987 26.2832 14.9946C26.2861 14.9421 26.2783 14.8896 26.2603 14.8403C26.2422 14.7909 26.2143 14.7457 26.1782 14.7075C26.1421 14.6693 26.0986 14.6389 26.0503 14.6181C26.0021 14.5973 25.9501 14.5865 25.8975 14.5865Z" fill="#E1147B"/>
<path d="M20.298 23.4657H13.5955C13.5085 23.4657 13.4242 23.4951 13.356 23.5491C13.2879 23.6031 13.2399 23.6786 13.22 23.7632C13.2001 23.8479 13.2094 23.9367 13.2463 24.0155C13.2832 24.0942 13.3457 24.1581 13.4235 24.1969L13.4481 24.2092C13.5015 24.2357 13.5603 24.2495 13.62 24.2493H20.2732C20.3328 24.2495 20.3917 24.2357 20.4452 24.2092L20.4696 24.1969C20.5474 24.1581 20.6098 24.0942 20.6468 24.0155C20.6837 23.9369 20.693 23.848 20.6731 23.7634C20.6533 23.6788 20.6054 23.6033 20.5373 23.5493C20.4692 23.4953 20.3849 23.4658 20.298 23.4657Z" fill="#E1147B"/>
<path d="M24.3928 21.6898H17.6905C17.6036 21.69 17.5193 21.7195 17.4513 21.7735C17.3832 21.8275 17.3354 21.9029 17.3155 21.9875C17.2956 22.0721 17.3048 22.1609 17.3417 22.2396C17.3786 22.3183 17.4409 22.3822 17.5186 22.4211L17.5431 22.4334C17.5965 22.4598 17.6554 22.4735 17.7151 22.4734H24.3679C24.4275 22.4735 24.4864 22.4598 24.5399 22.4334L24.5643 22.4211C24.642 22.3822 24.7044 22.3183 24.7412 22.2397C24.7781 22.161 24.7874 22.0722 24.7675 21.9877C24.7477 21.9031 24.6999 21.8277 24.6319 21.7736C24.5639 21.7196 24.4796 21.6901 24.3928 21.6898Z" fill="#E1147B"/>
<path d="M15.2538 20.5742L15.2424 20.562C15.1913 20.507 15.1575 20.4383 15.1449 20.3643C15.1323 20.2902 15.1416 20.2142 15.1716 20.1453C15.2017 20.0765 15.2511 20.018 15.3139 19.9769C15.3768 19.9358 15.4502 19.9139 15.5253 19.9139H26.4033C26.4784 19.9139 26.5518 19.9358 26.6146 19.9769C26.6775 20.018 26.7269 20.0765 26.7569 20.1453C26.787 20.2142 26.7963 20.2902 26.7837 20.3643C26.7711 20.4383 26.7372 20.507 26.6862 20.562L26.6748 20.5742C26.6386 20.613 26.5948 20.6439 26.5462 20.6651C26.4976 20.6863 26.4451 20.6973 26.3921 20.6975H15.5365C15.4835 20.6973 15.431 20.6863 15.3824 20.6651C15.3338 20.6439 15.29 20.613 15.2538 20.5742Z" fill="#E1147B"/>
<path d="M8.77486 19.914H13.9694C14.0563 19.9141 14.1406 19.9436 14.2087 19.9976C14.2767 20.0516 14.3246 20.127 14.3444 20.2116C14.3643 20.2962 14.3551 20.385 14.3182 20.4637C14.2814 20.5424 14.219 20.6063 14.1413 20.6452L14.1168 20.6575C14.0634 20.684 14.0046 20.6977 13.9449 20.6976H8.79995C8.74028 20.6978 8.68139 20.684 8.62796 20.6575L8.60349 20.6452C8.52581 20.6064 8.4635 20.5425 8.42663 20.4638C8.38975 20.3852 8.38047 20.2964 8.40029 20.2119C8.4201 20.1273 8.46786 20.0519 8.53582 19.9979C8.60379 19.9438 8.68801 19.9142 8.77486 19.914Z" fill="#E1147B"/>
<path d="M10.0186 14.9782C10.0185 15.0557 9.99553 15.1313 9.95248 15.1957C9.90944 15.2601 9.84827 15.3102 9.77673 15.3398C9.70519 15.3694 9.62648 15.3772 9.55054 15.362C9.47461 15.3469 9.40486 15.3096 9.35012 15.2549C9.29538 15.2001 9.2581 15.1303 9.243 15.0544C9.22789 14.9785 9.23564 14.8998 9.26527 14.8282C9.29489 14.7567 9.34506 14.6955 9.40943 14.6525C9.4738 14.6095 9.54949 14.5865 9.62691 14.5865C9.67836 14.5865 9.72929 14.5966 9.77681 14.6163C9.82434 14.636 9.86752 14.6649 9.90389 14.7012C9.94025 14.7376 9.96911 14.7808 9.98878 14.8283C10.0085 14.8759 10.0186 14.9268 10.0186 14.9782Z" fill="#E1147B"/>
<path d="M19.2492 16.8599C19.2503 16.856 19.2513 16.8518 19.2525 16.8478C19.2678 16.7906 19.2697 16.7307 19.2582 16.6727C19.2466 16.6147 19.2219 16.5601 19.1859 16.5132C19.1498 16.4663 19.1035 16.4283 19.0504 16.4021C18.9974 16.376 18.939 16.3624 18.8798 16.3625H8.00015C7.94099 16.3624 7.88261 16.376 7.82954 16.4021C7.77646 16.4282 7.73011 16.4662 7.69407 16.5132C7.65804 16.5601 7.6333 16.6147 7.62176 16.6727C7.61021 16.7307 7.61218 16.7906 7.62751 16.8478C7.62856 16.8518 7.62971 16.856 7.63087 16.8599C7.65293 16.9419 7.70135 17.0143 7.76867 17.066C7.83598 17.1177 7.91843 17.1458 8.0033 17.146H18.8767C18.9616 17.1458 19.044 17.1177 19.1113 17.066C19.1787 17.0143 19.2271 16.9419 19.2492 16.8599Z" fill="#E1147B"/>
<path d="M6.99299 16.7541C6.99295 16.8315 6.96995 16.9072 6.9269 16.9716C6.88385 17.036 6.82269 17.0861 6.75114 17.1157C6.67959 17.1453 6.60087 17.153 6.52493 17.1379C6.44899 17.1228 6.37924 17.0855 6.3245 17.0307C6.26977 16.9759 6.2325 16.9062 6.21741 16.8302C6.20232 16.7543 6.21008 16.6756 6.23972 16.604C6.26936 16.5325 6.31955 16.4714 6.38393 16.4283C6.44832 16.3853 6.52401 16.3624 6.60144 16.3624C6.70531 16.3624 6.80489 16.4037 6.87832 16.4772C6.95174 16.5506 6.99299 16.6503 6.99299 16.7541Z" fill="#E1147B"/>
<path d="M10.0186 18.53C10.0185 18.6074 9.99553 18.6831 9.95248 18.7474C9.90944 18.8118 9.84827 18.8619 9.77673 18.8915C9.70519 18.9212 9.62648 18.9289 9.55054 18.9138C9.47461 18.8986 9.40486 18.8613 9.35012 18.8066C9.29538 18.7518 9.2581 18.6821 9.243 18.6061C9.22789 18.5302 9.23564 18.4515 9.26527 18.3799C9.29489 18.3084 9.34506 18.2473 9.40943 18.2042C9.4738 18.1612 9.54949 18.1382 9.62691 18.1382C9.7308 18.1382 9.83041 18.1795 9.90386 18.253C9.97731 18.3265 10.0186 18.4261 10.0186 18.53Z" fill="#E1147B"/>
<path d="M16.6835 22.0817C16.6835 22.1591 16.6605 22.2348 16.6175 22.2992C16.5744 22.3635 16.5133 22.4137 16.4417 22.4433C16.3702 22.4729 16.2915 22.4806 16.2155 22.4655C16.1396 22.4504 16.0698 22.4131 16.0151 22.3583C15.9604 22.3036 15.9231 22.2338 15.908 22.1579C15.8929 22.0819 15.9006 22.0032 15.9302 21.9317C15.9599 21.8601 16.01 21.799 16.0744 21.756C16.1388 21.7129 16.2145 21.69 16.2919 21.6899C16.3433 21.6899 16.3943 21.7001 16.4418 21.7198C16.4893 21.7394 16.5325 21.7683 16.5689 21.8047C16.6052 21.8411 16.6341 21.8843 16.6538 21.9318C16.6734 21.9793 16.6836 22.0303 16.6835 22.0817Z" fill="#E1147B"/>
<path d="M12.5883 23.8576C12.5883 23.935 12.5653 24.0107 12.5222 24.075C12.4792 24.1394 12.418 24.1896 12.3465 24.2192C12.2749 24.2488 12.1962 24.2565 12.1203 24.2414C12.0443 24.2262 11.9746 24.1889 11.9198 24.1342C11.8651 24.0794 11.8278 24.0096 11.8127 23.9337C11.7977 23.8577 11.8054 23.779 11.8351 23.7075C11.8647 23.6359 11.9149 23.5748 11.9793 23.5318C12.0437 23.4888 12.1193 23.4658 12.1968 23.4658C12.2482 23.4658 12.2991 23.476 12.3467 23.4957C12.3942 23.5154 12.4373 23.5442 12.4737 23.5806C12.5101 23.617 12.5389 23.6602 12.5586 23.7077C12.5782 23.7552 12.5883 23.8061 12.5883 23.8576Z" fill="#E1147B"/>
</g>
<defs>
<clipPath id="clip0_1479_1336">
<rect width="21" height="21" fill="white" transform="translate(6 5)"/>
</clipPath>
</defs>
</svg>
