<svg width="32" height="32" viewBox="0 0 32 32" fill="none" xmlns="http://www.w3.org/2000/svg">
<g clip-path="url(#clip0_1479_1224)">
<path d="M16 32C24.8366 32 32 24.8366 32 16C32 7.16344 24.8366 0 16 0C7.16344 0 0 7.16344 0 16C0 24.8366 7.16344 32 16 32Z" fill="#071927"/>
<mask id="mask0_1479_1224" style="mask-type:alpha" maskUnits="userSpaceOnUse" x="7" y="18" width="18" height="7">
<path d="M7.37225 18.914C7.37225 18.5697 7.65134 18.2906 7.99563 18.2906H24.1236C24.4677 18.2906 24.747 18.5697 24.747 18.914V23.9468C24.747 24.2911 24.4677 24.5702 24.1236 24.5702H7.99563C7.65134 24.5702 7.37225 24.2911 7.37225 23.9468V18.914Z" fill="white"/>
</mask>
<g mask="url(#mask0_1479_1224)">
<path fill-rule="evenodd" clip-rule="evenodd" d="M16.0428 21.4868C15.4306 21.4868 14.8617 21.3652 14.3973 21.1354L9.69375 18.8072C9.50813 18.7153 9.28899 18.7216 9.10896 18.8241L7.89848 19.5127C7.18626 19.9178 7.1987 20.5387 7.92624 20.8989L14.8423 24.3225C15.1782 24.4885 15.6076 24.5704 16.0428 24.5704C16.551 24.5704 17.0665 24.459 17.4503 24.2408L24.2209 20.3888C24.9332 19.9836 24.9207 19.3626 24.193 19.0026L23.0523 18.4377C22.8665 18.3457 22.6473 18.352 22.4673 18.4545L17.9448 21.0276C17.4242 21.3234 16.7488 21.4868 16.0428 21.4868Z" fill="url(#paint0_linear_1479_1224)"/>
</g>
<path fill-rule="evenodd" clip-rule="evenodd" d="M24.2375 14.9039L23.3373 14.4517C23.1499 14.3575 22.9276 14.364 22.746 14.4689L20.2412 15.9147L19.7612 16.1917L19.2815 16.4687L17.9727 17.2242C17.4508 17.5258 16.7734 17.6916 16.0657 17.6916C15.4519 17.6916 14.8815 17.568 14.4159 17.3343L12.9164 16.581L12.4201 16.332L11.9238 16.0828L9.46131 14.8457C9.27382 14.7515 9.0515 14.7579 8.86979 14.8629L7.8999 15.4228C7.1858 15.8351 7.19802 16.4666 7.92749 16.8331L9.36938 17.5572L9.86568 17.8065L10.3617 18.0557L14.862 20.316C15.1986 20.485 15.6294 20.568 16.0657 20.568C16.575 20.568 17.0921 20.4549 17.4767 20.233L21.8032 17.7354L22.2832 17.4584L22.763 17.1814L24.2653 16.3141C24.9795 15.9021 24.9671 15.2703 24.2375 14.9039Z" fill="url(#paint1_linear_1479_1224)"/>
<path fill-rule="evenodd" clip-rule="evenodd" d="M24.2375 11.2091L17.303 7.78701C16.9665 7.62073 16.5359 7.53915 16.0993 7.53915C15.5901 7.53915 15.0729 7.65047 14.6884 7.86857L7.8999 11.7193C7.1858 12.1242 7.19802 12.7447 7.92749 13.1047L9.12806 13.6973L9.62437 13.9423L10.1207 14.1872L12.8835 15.5508L13.3798 15.7955L13.8761 16.0406L14.862 16.5273C15.1986 16.6934 15.6294 16.775 16.0657 16.775C16.575 16.775 17.0921 16.6636 17.4767 16.4455L18.2889 15.9848L18.7689 15.7126L19.2486 15.4404L22.0445 13.8546L22.5243 13.5824L23.004 13.3102L24.2653 12.5948C24.9795 12.19 24.9671 11.5692 24.2375 11.2091Z" fill="url(#paint2_linear_1479_1224)"/>
</g>
<defs>
<linearGradient id="paint0_linear_1479_1224" x1="16.0597" y1="8.08663" x2="16.0597" y2="24.5704" gradientUnits="userSpaceOnUse">
<stop stop-color="#B3F9BA"/>
<stop offset="1" stop-color="#F6FB8C"/>
</linearGradient>
<linearGradient id="paint1_linear_1479_1224" x1="16.0826" y1="8.0994" x2="16.0826" y2="24.1912" gradientUnits="userSpaceOnUse">
<stop stop-color="#B1FFBF"/>
<stop offset="1" stop-color="#FFF16D"/>
</linearGradient>
<linearGradient id="paint2_linear_1479_1224" x1="16.0826" y1="7.53915" x2="16.0826" y2="24.2377" gradientUnits="userSpaceOnUse">
<stop stop-color="#B3F9BA"/>
<stop offset="1" stop-color="#F6FB8C"/>
</linearGradient>
<clipPath id="clip0_1479_1224">
<rect width="32" height="32" fill="white"/>
</clipPath>
</defs>
</svg>
