<svg width="32" height="32" viewBox="0 0 32 32" fill="none" xmlns="http://www.w3.org/2000/svg">
<g clip-path="url(#clip0_1544_563)">
<path d="M16 32C24.832 32 32 24.832 32 16C32 7.168 24.832 0 16 0C7.168 0 0 7.168 0 16C0 24.832 7.168 32 16 32Z" fill="#31CB9E"/>
<path d="M14.272 17.504L23.68 22.56C24 22.72 24.032 23.136 23.744 23.328L17.376 27.904C17.088 28.128 16.672 27.968 16.576 27.616L14.272 17.504ZM13.984 4.608C14.368 4.352 14.88 4.64 14.784 5.088L12.256 16L14.752 26.912C14.848 27.328 14.336 27.648 13.952 27.392L7.55198 22.816C7.23198 22.592 7.03998 22.208 7.03998 21.824V10.176C7.03998 9.792 7.23198 9.408 7.55198 9.184L13.984 4.608ZM24.288 10.848C24.608 10.656 25.056 10.88 25.056 11.264V20.736C25.056 21.088 24.64 21.312 24.288 21.152L14.72 16L24.288 10.848ZM16.576 4.384C16.64 4.032 17.088 3.904 17.376 4.096L23.744 8.64C24.032 8.832 24 9.248 23.68 9.408L14.272 14.496L16.576 4.384Z" fill="white"/>
</g>
<defs>
<clipPath id="clip0_1544_563">
<rect width="32" height="32" fill="white"/>
</clipPath>
</defs>
</svg>
