<svg width="32" height="32" viewBox="0 0 32 32" fill="none" xmlns="http://www.w3.org/2000/svg">
<mask id="mask0_2106_28" style="mask-type:alpha" maskUnits="userSpaceOnUse" x="0" y="0" width="32" height="32">
<circle cx="16" cy="16" r="16" fill="#D9D9D9"/>
</mask>
<g mask="url(#mask0_2106_28)">
<rect width="32" height="32" fill="#292929"/>
</g>
<g clip-path="url(#clip0_2106_28)">
<path d="M16 32C24.8366 32 32 24.8366 32 16C32 7.16344 24.8366 0 16 0C7.16344 0 0 7.16344 0 16C0 24.8366 7.16344 32 16 32Z" fill="black"/>
<path fill-rule="evenodd" clip-rule="evenodd" d="M17.2771 7.86631L17.9131 3.77185C17.2844 3.6745 16.6409 3.625 15.9999 3.625H15.9901V11.9781H15.9999C16.3522 11.9781 16.7004 12.0235 17.0361 12.1126L18.1169 8.04206C17.8405 7.96863 17.56 7.91088 17.2779 7.86631H17.2771ZM13.9861 12.5177L11.9071 8.93631H11.9063C11.6613 9.07906 11.422 9.23331 11.1935 9.4L8.71106 5.99851C9.23331 5.61737 9.78938 5.27499 10.3636 4.98047L12.2528 8.66819C12.6364 8.47269 13.0341 8.30687 13.4432 8.17319L12.1579 4.23384C12.7726 4.03337 13.4078 3.87992 14.0472 3.77844L14.708 7.93725C14.4283 7.98181 14.1503 8.04287 13.8764 8.11631L14.9522 12.1151C14.6148 12.2058 14.2897 12.3419 13.9861 12.5177ZM4.96565 10.3926L8.71856 12.3033C8.5255 12.6828 8.36137 13.0804 8.23019 13.4855L4.22315 12.1894C4.42197 11.574 4.67195 10.9693 4.96565 10.3926ZM23.0612 11.903L19.4807 13.9837C19.6573 14.2872 19.7926 14.6123 19.8833 14.9497L23.8821 13.8723C23.9555 14.1462 24.0166 14.4242 24.0611 14.7031L28.2199 14.0406C28.1184 13.4012 27.965 12.766 27.7637 12.1514L23.8251 13.4392C23.6915 13.03 23.5257 12.6323 23.3293 12.2487L27.0163 10.357C26.7217 9.78275 26.3793 9.22756 25.9974 8.70531L22.5968 11.1894C22.7634 11.4179 22.9184 11.6572 23.0604 11.9022L23.0612 11.903ZM21.6006 4.96217L21.6009 4.96234V4.96152L21.6006 4.96217ZM19.8032 4.22067C20.4186 4.41946 21.0232 4.66855 21.6006 4.96217L19.6927 8.71606C19.3124 8.52306 18.9147 8.35888 18.5096 8.2285L19.8032 4.22067ZM20.1059 8.863L18.003 12.512C18.3074 12.6877 18.5879 12.9022 18.8379 13.1514L24.735 7.23444C24.2779 6.77825 23.7805 6.355 23.2582 5.97633L20.8262 9.32994C20.5944 9.16163 20.3543 9.00575 20.1059 8.863ZM12.5136 13.9945L8.86537 11.8899H8.86456C9.00812 11.6424 9.16406 11.4023 9.33237 11.1705L5.97955 8.73675C6.35906 8.2145 6.78225 7.71787 7.2385 7.26081L13.1538 13.1596C12.9046 13.4096 12.6892 13.6901 12.5136 13.9945ZM8.04369 13.879L12.1134 14.9622H12.1126C12.0235 15.298 11.9781 15.647 11.9781 16.0001H3.625C3.625 15.3574 3.67532 14.7114 3.7735 14.0803L7.868 14.7181C7.91169 14.4359 7.97025 14.1554 8.04369 13.879ZM23.2814 19.6968L27.0343 21.6074C27.3281 21.0307 27.578 20.4261 27.7768 19.8106L23.7698 18.5145C23.6386 18.9196 23.4744 19.3173 23.2814 19.6968ZM18.0138 19.4823L20.0928 23.0637L20.0936 23.0645C20.3386 22.9218 20.5779 22.7675 20.8064 22.6008L23.2888 26.0023C22.7666 26.3834 22.2105 26.7258 21.6363 27.0204L19.7471 23.3326C19.3634 23.5281 18.9658 23.6939 18.5566 23.8276L19.8419 27.767C19.2273 27.9674 18.5921 28.1209 17.9527 28.2224L17.2919 24.0627C17.5716 24.0182 17.8496 23.9571 18.1235 23.8837L17.0477 19.8849C17.3851 19.7942 17.7101 19.6581 18.0138 19.4823ZM8.93881 20.0969L12.5193 18.0163C12.3428 17.7127 12.2075 17.3876 12.1167 17.0502L8.11794 18.1277C8.0445 17.8537 7.9835 17.5757 7.93894 17.2969L3.77929 17.9594C3.88076 18.5988 4.03421 19.234 4.23551 19.8486L8.17406 18.5608C8.30769 18.97 8.4735 19.3676 8.66988 19.7512L4.98296 21.643C5.27748 22.2172 5.61986 22.7724 6.00183 23.2946L9.4025 20.8106C9.23581 20.5821 9.08075 20.3428 8.93881 20.0977V20.0969ZM10.3993 27.0378L10.399 27.0376V27.0384L10.3993 27.0378ZM10.3993 27.0378C10.9768 27.3314 11.5813 27.5805 12.1967 27.7793L13.4902 23.7714C13.0852 23.6411 12.6876 23.4769 12.3072 23.2839L10.3993 27.0378ZM11.8939 23.137L11.8941 23.1367L11.8947 23.137H11.8939ZM11.8941 23.1367L13.9969 19.4881C13.6924 19.3123 13.4119 19.0978 13.1619 18.8487L7.26569 24.7656C7.72275 25.2218 8.22019 25.645 8.74244 26.0237L11.1745 22.6701C11.4062 22.8383 11.646 22.9941 11.8941 23.1367ZM19.4872 18.0055L23.1354 20.1101V20.1109C22.9918 20.3584 22.8359 20.5985 22.6676 20.8303L26.0204 23.2641C25.6409 23.7863 25.2177 24.2829 24.7614 24.7399L18.8471 18.8404C19.0962 18.5904 19.3115 18.3099 19.4872 18.0055ZM14.9637 19.8874V19.8876L14.9629 19.8874H14.9637ZM14.9637 19.8876L13.883 23.9579C14.1594 24.0314 14.4399 24.0891 14.7221 24.1337L14.086 28.2281C14.7146 28.3255 15.3581 28.375 15.9991 28.375H16.0091V20.0219H15.9991C15.6471 20.0219 15.2992 19.9766 14.9637 19.8876ZM19.8874 17.0378C19.9764 16.7023 20.0217 16.3536 20.0218 16.0008H28.3749C28.3749 16.6435 28.3246 17.2894 28.2264 17.9206L24.1328 17.282C24.0891 17.5642 24.0305 17.8447 23.9571 18.1211L19.8874 17.0378Z" fill="white"/>
</g>
<defs>
<clipPath id="clip0_2106_28">
<rect width="32" height="32" fill="white"/>
</clipPath>
</defs>
</svg>
