<svg width="32" height="32" viewBox="0 0 32 32" fill="none" xmlns="http://www.w3.org/2000/svg">
<g clip-path="url(#clip0_1980_322)">
<path d="M32 0H0V32H32V0Z" fill="#FFEEDA"/>
<path d="M24.0283 18.8825V7.97076C24.0138 7.05545 23.2859 6.32031 22.3706 6.32031H10.9832C8.52556 6.35635 6.55078 8.36716 6.55078 10.832C6.55078 11.6609 6.7742 12.3744 7.11294 13.0014C7.40123 13.5203 7.85529 14.0104 8.30213 14.378C8.43186 14.4789 8.367 14.4356 8.75619 14.6735C9.28952 14.9978 9.90213 15.1636 9.90213 15.1636L9.89493 21.6933C9.90934 22.0032 9.93817 22.2987 10.0247 22.5798C10.2769 23.5023 10.9183 24.2086 11.7832 24.5473C12.1436 24.6915 12.5544 24.7852 12.994 24.7924L22.0895 24.8212C23.8985 24.8212 25.3688 23.3509 25.3688 21.5347C25.376 20.4536 24.8355 19.4879 24.0283 18.8825Z" fill="#FFEEDA"/>
<path d="M24.2533 21.6145C24.2173 22.7748 23.2588 23.7118 22.084 23.7118L15.8281 23.6902C16.3254 23.1136 16.6281 22.364 16.6281 21.5424C16.6281 20.2595 15.8642 19.373 15.8642 19.373H22.0912C23.2876 19.373 24.2606 20.346 24.2606 21.5424L24.2533 21.6145Z" fill="#EBC28E"/>
<path d="M8.90033 13.4561C8.17961 12.7714 7.67511 11.8921 7.67511 10.8398V10.7317C7.73276 8.94434 9.20303 7.5029 10.9904 7.45245H22.3778C22.6733 7.46686 22.9111 7.67587 22.9111 7.97858V17.6146C23.1706 17.6579 23.3003 17.6939 23.5526 17.7876C23.7544 17.8597 24.0283 18.0182 24.0283 18.0182V7.97858C24.0138 7.06326 23.2859 6.32812 22.3706 6.32812H10.9832C8.52556 6.36416 6.55078 8.37497 6.55078 10.8398C6.55078 12.2741 7.20664 13.4993 8.2733 14.357C8.34538 14.4146 8.41745 14.4939 8.60484 14.4939C8.93637 14.4939 9.1742 14.2272 9.15979 13.9389C9.15979 13.6939 9.05168 13.6074 8.90033 13.4561Z" fill="#101010"/>
<path d="M22.0809 18.2479H13.1512C12.553 18.2551 12.0701 18.738 12.0701 19.3362V20.6191C12.0845 21.2101 12.589 21.7146 13.1944 21.7146H13.8575V20.6191H13.1872V19.365C13.1872 19.365 13.353 19.365 13.5476 19.365C14.6791 19.365 15.5079 20.4101 15.5079 21.5344C15.5079 22.529 14.5998 23.7975 13.0863 23.6966C11.7458 23.6101 11.0179 22.4137 11.0179 21.5344V10.6515C11.0179 10.1614 10.6143 9.75781 10.1242 9.75781H9.23047V10.8749H9.89353V21.5416C9.8575 23.711 11.4359 24.7993 13.0863 24.7993L22.0881 24.8281C23.8971 24.8281 25.3674 23.3578 25.3674 21.5416C25.3746 19.7254 23.8971 18.2479 22.0809 18.2479ZM24.2503 21.6137C24.2143 22.774 23.2557 23.711 22.0809 23.711L15.8251 23.6893C16.3224 23.1128 16.6251 22.3632 16.6251 21.5416C16.6251 20.2587 15.8611 19.3722 15.8611 19.3722H22.0881C23.2845 19.3722 24.2575 20.3452 24.2575 21.5416L24.2503 21.6137Z" fill="#101010"/>
<path d="M19.6768 11.0761H12.9453V9.95898H19.6768C19.9795 9.95898 20.2318 10.204 20.2318 10.5139C20.239 10.8238 19.994 11.0761 19.6768 11.0761Z" fill="#101010"/>
<path d="M19.6768 16.3169H12.9453V15.207H19.6768C19.9795 15.207 20.2318 15.4521 20.2318 15.762C20.239 16.0647 19.994 16.3169 19.6768 16.3169Z" fill="#101010"/>
<path d="M20.866 13.6933H12.9453V12.5762H20.8588C21.1615 12.5762 21.4138 12.8212 21.4138 13.1311C21.4282 13.441 21.1759 13.6933 20.866 13.6933Z" fill="#101010"/>
</g>
<defs>
<clipPath id="clip0_1980_322">
<rect width="32" height="32" rx="16" fill="white"/>
</clipPath>
</defs>
</svg>
