<svg width="32" height="32" viewBox="0 0 32 32" fill="none" xmlns="http://www.w3.org/2000/svg">
<mask id="mask0_1479_1171" style="mask-type:alpha" maskUnits="userSpaceOnUse" x="0" y="0" width="32" height="32">
<circle cx="16" cy="16" r="16" fill="#D9D9D9"/>
</mask>
<g mask="url(#mask0_1479_1171)">
<rect width="35.6667" height="35.6667" fill="#FFF6FB"/>
</g>
<g clip-path="url(#clip0_1479_1171)">
<mask id="mask1_1479_1171" style="mask-type:luminance" maskUnits="userSpaceOnUse" x="0" y="0" width="32" height="32">
<path d="M32 0H0V32H32V0Z" fill="white"/>
</mask>
<g mask="url(#mask1_1479_1171)">
<path d="M8.83201 9.25867L6.03734 6.464V16C6.03734 18.4427 6.96534 20.8853 8.83201 22.7413C12.5547 26.464 18.6027 26.464 22.3253 22.7413L8.83201 9.25867Z" fill="#48A3FF"/>
</g>
<mask id="mask2_1479_1171" style="mask-type:luminance" maskUnits="userSpaceOnUse" x="0" y="0" width="32" height="32">
<path d="M32 0H0V32H32V0Z" fill="white"/>
</mask>
<g mask="url(#mask2_1479_1171)">
<path d="M23.168 22.7413L25.9627 25.536V16C25.9627 13.5573 25.0347 11.1147 23.168 9.25866C19.4453 5.53599 13.3973 5.53599 9.67467 9.25866L23.168 22.7413Z" fill="#48A3FF"/>
</g>
</g>
<defs>
<clipPath id="clip0_1479_1171">
<rect width="32" height="32" fill="white"/>
</clipPath>
</defs>
</svg>
