<svg width="512" height="512" viewBox="0 0 512 512" fill="none" xmlns="http://www.w3.org/2000/svg">
<g clip-path="url(#clip0_1594_240)">
<path d="M256 512C397.385 512 512 397.385 512 256C512 114.615 397.385 0 256 0C114.615 0 0 114.615 0 256C0 397.385 114.615 512 256 512Z" fill="#133629"/>
<path d="M396.433 168L399.633 173.296C415.59 200.091 424.009 230.701 424.001 261.888C423.713 355.776 348.561 432 256.001 432H255.713C163.153 432 87.7128 355.184 88.0008 261.296C88.0008 229.808 96.7048 199.2 112.657 172.704L115.569 167.712L130.945 183.312C127.897 187.767 125.459 192.61 123.697 197.712C117.834 213.957 118.631 231.862 125.914 247.522C133.197 263.182 146.376 275.328 162.577 281.312C172.101 284.704 182.291 285.805 192.32 284.527C202.349 283.248 211.936 279.625 220.305 273.952L256.001 310.448L296.913 268.944C300.689 271.6 305.041 273.664 309.681 275.424C342.481 287.2 378.449 269.824 390.049 236.864C397.009 217.44 393.825 197.136 383.665 180.944L396.433 168ZM149.809 202.432L197.969 250.992C192.161 255.712 184.913 258.352 177.073 258.352C158.225 258.352 142.833 242.752 142.833 223.632C142.833 215.68 145.457 208.32 149.809 202.432ZM317.809 248.048L365.393 199.792C369.169 205.392 371.185 212.144 371.185 219.216C371.185 238.336 355.825 253.936 336.945 253.936C329.697 253.936 323.313 251.872 317.809 248.048ZM256.577 284.544L117.889 143.264L123.393 137.392C157.633 100.592 204.353 80 254.561 80H254.849C305.633 80 354.369 102.08 388.321 140.32L393.553 146.224L256.593 284.544H256.577ZM140.513 143.264L256.577 261.296L371.201 145.632C340.449 114.432 298.673 96.48 255.153 96.48H254.849C211.617 96.48 171.297 112.96 140.529 143.28L140.513 143.264Z" fill="white"/>
</g>
<defs>
<clipPath id="clip0_1594_240">
<rect width="512" height="512" fill="white"/>
</clipPath>
</defs>
</svg>
