<svg width="32" height="32" viewBox="0 0 32 32" fill="none" xmlns="http://www.w3.org/2000/svg">
<mask id="mask0_1479_1142" style="mask-type:alpha" maskUnits="userSpaceOnUse" x="0" y="0" width="32" height="32">
<circle cx="16" cy="16" r="16" fill="#D9D9D9"/>
</mask>
<g mask="url(#mask0_1479_1142)">
<rect width="35.6667" height="35.6667" fill="#FFF6FB"/>
</g>
<g clip-path="url(#clip0_1479_1142)">
<path d="M16.0871 2.33333L4.33334 9.15925V22.8066L16.0871 29.6279L27.8318 22.8066V9.15925L16.0871 2.33333ZM24.352 20.7844L16.0871 25.5836L7.81763 20.7844V11.1768L16.0871 6.37764L24.352 11.1768V20.7844Z" fill="#002D74"/>
<path style="mix-blend-mode:multiply" d="M16.0871 29.6279L27.8318 22.8066V9.15925L16.0871 2.33333V6.38222L24.352 11.1814V20.789L16.0871 25.5836V29.6279Z" fill="url(#paint0_linear_1479_1142)"/>
<path style="mix-blend-mode:multiply" d="M16.078 2.33333L4.33334 9.15469V22.8021L16.078 29.6279V25.579L7.81307 20.7798V11.1723L16.078 6.37764V2.33333Z" fill="url(#paint1_linear_1479_1142)"/>
<path d="M21.5682 19.1694L16.0825 22.3537L10.5923 19.1694V12.7964L16.0825 9.6076L21.5682 12.7964L19.2848 14.1232L16.0825 12.2611L12.8803 14.1232V17.8381L16.0825 19.7001L19.2848 17.8381L21.5682 19.1694Z" fill="#002D74"/>
</g>
<defs>
<linearGradient id="paint0_linear_1479_1142" x1="21.9594" y1="29.6279" x2="21.9594" y2="15.9806" gradientUnits="userSpaceOnUse">
<stop stop-color="#002D74"/>
<stop offset="1" stop-color="#002D74" stop-opacity="0"/>
</linearGradient>
<linearGradient id="paint1_linear_1479_1142" x1="10.2057" y1="2.33333" x2="10.2057" y2="15.9806" gradientUnits="userSpaceOnUse">
<stop stop-color="#002D74"/>
<stop offset="1" stop-color="#002D74" stop-opacity="0"/>
</linearGradient>
<clipPath id="clip0_1479_1142">
<rect width="23.6667" height="27.3333" fill="white" transform="translate(4.33334 2.33333)"/>
</clipPath>
</defs>
</svg>
