<svg width="32" height="32" viewBox="0 0 32 32" fill="none" xmlns="http://www.w3.org/2000/svg">
<mask id="mask0_1481_1411" style="mask-type:alpha" maskUnits="userSpaceOnUse" x="0" y="0" width="32" height="32">
<circle cx="16" cy="16" r="16" fill="#D9D9D9"/>
</mask>
<g mask="url(#mask0_1481_1411)">
<rect width="32" height="32" fill="#292929"/>
</g>
<g clip-path="url(#clip0_1481_1411)">
<path d="M24.494 6.03191C22.3011 4.21276 19.6297 3.25709 16.9315 3.16312L10.5619 19.867L24.494 6.03191Z" fill="white"/>
<path d="M26.0832 7.61169L18.0814 15.5567L26.0814 23.5C29.9475 18.9114 29.9475 12.2021 26.0832 7.61169Z" fill="white"/>
<path d="M13.8013 5.06918L4.02449 14.7766C3.83342 17.8156 4.76021 20.9096 6.81021 23.3989L13.8013 5.06918Z" fill="white"/>
<path d="M16.4908 17.1348L8.48904 25.0798C13.1123 28.9167 19.8694 28.9167 24.4908 25.078L16.4908 17.1348Z" fill="white"/>
</g>
<defs>
<clipPath id="clip0_1481_1411">
<rect width="25" height="25" fill="white" transform="translate(4 3)"/>
</clipPath>
</defs>
</svg>
